<mxfile host="app.diagrams.net" agent="Mozilla/5.0 (Windows NT 10.0; Win64; x64; rv:140.0) Gecko/20100101 Firefox/140.0" version="27.1.6">
  <diagram id="6a731a19-8d31-9384-78a2-239565b7b9f0" name="Page-1">
    <mxGraphModel dx="1642" dy="934" grid="1" gridSize="10" guides="1" tooltips="1" connect="1" arrows="1" fold="1" page="1" pageScale="1" pageWidth="1169" pageHeight="827" background="none" math="0" shadow="0">
      <root>
        <mxCell id="0" />
        <mxCell id="1" parent="0" />
        <mxCell id="2" value="start" style="shape=mxgraph.flowchart.terminator;strokeWidth=2;gradientDirection=north;fontStyle=0;html=1;fillColor=#f8cecc;strokeColor=#b85450;" parent="1" vertex="1">
          <mxGeometry x="260" y="60" width="120" height="30" as="geometry" />
        </mxCell>
        <mxCell id="5" value="&lt;p class=&quot;MsoNoSpacing&quot;&gt;Get candidateâ€™s&amp;nbsp;login credentials&lt;/p&gt;" style="shape=mxgraph.flowchart.data;strokeWidth=2;gradientDirection=north;fontStyle=0;html=1;whiteSpace=wrap;verticalAlign=middle;fillColor=#fff2cc;strokeColor=#d6b656;" parent="1" vertex="1">
          <mxGeometry x="240.5" y="250" width="159" height="80" as="geometry" />
        </mxCell>
        <mxCell id="6" value="&lt;p class=&quot;MsoNormal&quot;&gt;is login valid&lt;/p&gt;" style="shape=mxgraph.flowchart.decision;strokeWidth=2;gradientDirection=north;fontStyle=0;html=1;fillColor=#f5f5f5;fontColor=#333333;strokeColor=#666666;" parent="1" vertex="1">
          <mxGeometry x="271" y="357" width="98" height="57" as="geometry" />
        </mxCell>
        <mxCell id="7" style="fontStyle=1;strokeColor=#003366;strokeWidth=1;html=1;entryX=0.5;entryY=0;entryDx=0;entryDy=0;" parent="1" source="2" target="IJKqTvDwEQRu4lSzQ6WL-63" edge="1">
          <mxGeometry relative="1" as="geometry">
            <mxPoint x="320" y="120" as="targetPoint" />
          </mxGeometry>
        </mxCell>
        <mxCell id="8" style="fontStyle=1;strokeColor=#003366;strokeWidth=1;html=1;" parent="1" target="5" edge="1">
          <mxGeometry relative="1" as="geometry">
            <mxPoint x="320" y="210" as="sourcePoint" />
          </mxGeometry>
        </mxCell>
        <mxCell id="9" style="entryX=0.5;entryY=0;entryPerimeter=0;fontStyle=1;strokeColor=#003366;strokeWidth=1;html=1;" parent="1" source="5" target="6" edge="1">
          <mxGeometry relative="1" as="geometry" />
        </mxCell>
        <mxCell id="10" value="" style="edgeStyle=elbowEdgeStyle;elbow=horizontal;exitX=1;exitY=0.5;exitPerimeter=0;fontStyle=1;strokeColor=#003366;strokeWidth=1;html=1;" parent="1" source="6" edge="1">
          <mxGeometry x="381" y="28.5" width="100" height="100" as="geometry">
            <mxPoint x="750" y="447" as="sourcePoint" />
            <mxPoint x="320" y="230" as="targetPoint" />
            <Array as="points">
              <mxPoint x="440" y="300" />
            </Array>
          </mxGeometry>
        </mxCell>
        <mxCell id="11" value="yes" style="text;fontStyle=0;html=1;strokeColor=none;gradientColor=none;fillColor=none;strokeWidth=2;" parent="1" vertex="1">
          <mxGeometry x="280" y="414" width="40" height="26" as="geometry" />
        </mxCell>
        <mxCell id="12" value="" style="edgeStyle=elbowEdgeStyle;elbow=horizontal;fontColor=#001933;fontStyle=1;strokeColor=#003366;strokeWidth=1;html=1;" parent="1" source="6" target="IJKqTvDwEQRu4lSzQ6WL-57" edge="1">
          <mxGeometry width="100" height="100" as="geometry">
            <mxPoint y="100" as="sourcePoint" />
            <mxPoint x="320" y="510" as="targetPoint" />
          </mxGeometry>
        </mxCell>
        <mxCell id="14" value="yes" style="text;fontStyle=0;html=1;strokeColor=none;gradientColor=none;fillColor=none;strokeWidth=2;align=center;" parent="1" vertex="1">
          <mxGeometry x="320" y="447" width="40" height="26" as="geometry" />
        </mxCell>
        <mxCell id="40" value="stop" style="shape=mxgraph.flowchart.terminator;strokeWidth=2;gradientDirection=north;fontStyle=0;html=1;fillColor=#f8cecc;strokeColor=#b85450;" parent="1" vertex="1">
          <mxGeometry x="525" y="620" width="120" height="30" as="geometry" />
        </mxCell>
        <mxCell id="43" value="" style="edgeStyle=elbowEdgeStyle;elbow=vertical;entryX=0.5;entryY=0;entryPerimeter=0;fontStyle=1;strokeColor=#003366;strokeWidth=1;html=1;" parent="1" target="40" edge="1">
          <mxGeometry width="100" height="100" as="geometry">
            <mxPoint x="584" y="580" as="sourcePoint" />
            <mxPoint x="365" y="-1290" as="targetPoint" />
          </mxGeometry>
        </mxCell>
        <mxCell id="IJKqTvDwEQRu4lSzQ6WL-57" value="&lt;p class=&quot;MsoNoSpacing&quot;&gt;-Display candidate and test details&lt;/p&gt;&lt;p class=&quot;MsoNoSpacing&quot;&gt;-Waits for start test command from admin.&lt;/p&gt;" style="rounded=1;whiteSpace=wrap;html=1;fillColor=#dae8fc;strokeColor=#6c8ebf;" vertex="1" parent="1">
          <mxGeometry x="205" y="440" width="230" height="65" as="geometry" />
        </mxCell>
        <mxCell id="IJKqTvDwEQRu4lSzQ6WL-59" value="start exam command received?" style="shape=mxgraph.flowchart.decision;strokeWidth=2;gradientDirection=north;fontStyle=0;html=1;whiteSpace=wrap;fillColor=#f5f5f5;fontColor=#333333;strokeColor=#666666;" vertex="1" parent="1">
          <mxGeometry x="248.25" y="530" width="143.51" height="87" as="geometry" />
        </mxCell>
        <mxCell id="IJKqTvDwEQRu4lSzQ6WL-60" value="" style="edgeStyle=elbowEdgeStyle;elbow=horizontal;exitX=0;exitY=0.5;exitPerimeter=0;fontStyle=1;strokeColor=#003366;strokeWidth=1;html=1;exitDx=0;exitDy=0;" edge="1" parent="1" source="IJKqTvDwEQRu4lSzQ6WL-59">
          <mxGeometry x="381" y="28.5" width="100" height="100" as="geometry">
            <mxPoint x="379" y="396" as="sourcePoint" />
            <mxPoint x="320" y="510" as="targetPoint" />
            <Array as="points">
              <mxPoint x="190" y="540" />
            </Array>
          </mxGeometry>
        </mxCell>
        <mxCell id="IJKqTvDwEQRu4lSzQ6WL-62" value="" style="edgeStyle=elbowEdgeStyle;elbow=horizontal;fontColor=#001933;fontStyle=1;strokeColor=#003366;strokeWidth=1;html=1;exitX=0.509;exitY=0.959;exitDx=0;exitDy=0;exitPerimeter=0;" edge="1" parent="1" source="IJKqTvDwEQRu4lSzQ6WL-57" target="IJKqTvDwEQRu4lSzQ6WL-59">
          <mxGeometry width="100" height="100" as="geometry">
            <mxPoint x="321" y="510" as="sourcePoint" />
            <mxPoint x="321.05" y="520" as="targetPoint" />
          </mxGeometry>
        </mxCell>
        <mxCell id="IJKqTvDwEQRu4lSzQ6WL-64" value="" style="edgeStyle=orthogonalEdgeStyle;rounded=0;orthogonalLoop=1;jettySize=auto;html=1;" edge="1" parent="1" source="IJKqTvDwEQRu4lSzQ6WL-63" target="5">
          <mxGeometry relative="1" as="geometry" />
        </mxCell>
        <mxCell id="IJKqTvDwEQRu4lSzQ6WL-63" value="&lt;div align=&quot;left&quot;&gt;&lt;ul&gt;&lt;li&gt;Boot up from flash&amp;nbsp;&lt;/li&gt;&lt;li&gt;Launch Test App (SIK Test Center)&lt;/li&gt;&lt;li&gt;Unmount/Detach Drives&lt;/li&gt;&lt;li&gt;Disable Right click &amp;amp; Text selection&lt;/li&gt;&lt;/ul&gt;&lt;/div&gt;" style="rounded=1;whiteSpace=wrap;html=1;align=left;fillColor=#dae8fc;strokeColor=#6c8ebf;" vertex="1" parent="1">
          <mxGeometry x="190" y="110" width="260" height="90" as="geometry" />
        </mxCell>
        <mxCell id="IJKqTvDwEQRu4lSzQ6WL-65" value="&lt;ul&gt;&lt;li&gt;Load Test Window&lt;/li&gt;&lt;li&gt;Countdown begins&lt;/li&gt;&lt;/ul&gt;" style="rounded=1;whiteSpace=wrap;html=1;align=left;fillColor=#dae8fc;strokeColor=#6c8ebf;" vertex="1" parent="1">
          <mxGeometry x="490" y="110" width="180" height="90" as="geometry" />
        </mxCell>
        <mxCell id="IJKqTvDwEQRu4lSzQ6WL-66" value="is timed out?" style="shape=mxgraph.flowchart.decision;strokeWidth=2;gradientColor=none;gradientDirection=north;fontStyle=0;html=1;" vertex="1" parent="1">
          <mxGeometry x="521" y="220" width="118" height="57" as="geometry" />
        </mxCell>
        <mxCell id="IJKqTvDwEQRu4lSzQ6WL-67" value="&lt;div&gt;Accept answers/solution&amp;nbsp;&lt;/div&gt;&lt;div&gt;from candidate and save&lt;/div&gt;" style="shape=mxgraph.flowchart.data;strokeWidth=2;gradientDirection=north;fontStyle=0;html=1;verticalAlign=middle;whiteSpace=wrap;fillColor=#fff2cc;strokeColor=#d6b656;" vertex="1" parent="1">
          <mxGeometry x="485" y="299.5" width="190" height="90.5" as="geometry" />
        </mxCell>
        <mxCell id="IJKqTvDwEQRu4lSzQ6WL-68" value="is final submit?" style="shape=mxgraph.flowchart.decision;strokeWidth=2;gradientDirection=north;fontStyle=0;html=1;fillColor=#f5f5f5;fontColor=#333333;strokeColor=#666666;" vertex="1" parent="1">
          <mxGeometry x="531" y="416" width="98" height="57" as="geometry" />
        </mxCell>
        <mxCell id="IJKqTvDwEQRu4lSzQ6WL-69" value="&lt;p align=&quot;center&quot; class=&quot;MsoNoSpacing&quot;&gt;Do final submission and shutdown operating system&lt;/p&gt;" style="rounded=1;whiteSpace=wrap;html=1;align=center;fillColor=#dae8fc;strokeColor=#6c8ebf;" vertex="1" parent="1">
          <mxGeometry x="490" y="495" width="180" height="90" as="geometry" />
        </mxCell>
        <mxCell id="IJKqTvDwEQRu4lSzQ6WL-70" value="" style="endArrow=classic;html=1;rounded=1;exitX=0.5;exitY=1;exitDx=0;exitDy=0;exitPerimeter=0;curved=0;entryX=0.5;entryY=0;entryDx=0;entryDy=0;" edge="1" parent="1" source="IJKqTvDwEQRu4lSzQ6WL-59" target="IJKqTvDwEQRu4lSzQ6WL-65">
          <mxGeometry width="50" height="50" relative="1" as="geometry">
            <mxPoint x="435" y="440" as="sourcePoint" />
            <mxPoint x="485" y="390" as="targetPoint" />
            <Array as="points">
              <mxPoint x="320" y="650" />
              <mxPoint x="460" y="650" />
              <mxPoint x="460" y="70" />
              <mxPoint x="580" y="70" />
            </Array>
          </mxGeometry>
        </mxCell>
        <mxCell id="IJKqTvDwEQRu4lSzQ6WL-74" value="" style="endArrow=classic;html=1;rounded=0;" edge="1" parent="1" source="IJKqTvDwEQRu4lSzQ6WL-65" target="IJKqTvDwEQRu4lSzQ6WL-66">
          <mxGeometry width="50" height="50" relative="1" as="geometry">
            <mxPoint x="590" y="180" as="sourcePoint" />
            <mxPoint x="640" y="130" as="targetPoint" />
          </mxGeometry>
        </mxCell>
        <mxCell id="IJKqTvDwEQRu4lSzQ6WL-75" value="" style="endArrow=classic;html=1;rounded=0;" edge="1" parent="1" source="IJKqTvDwEQRu4lSzQ6WL-66" target="IJKqTvDwEQRu4lSzQ6WL-67">
          <mxGeometry width="50" height="50" relative="1" as="geometry">
            <mxPoint x="650" y="280" as="sourcePoint" />
            <mxPoint x="700" y="230" as="targetPoint" />
          </mxGeometry>
        </mxCell>
        <mxCell id="IJKqTvDwEQRu4lSzQ6WL-76" value="" style="endArrow=classic;html=1;rounded=0;" edge="1" parent="1" source="IJKqTvDwEQRu4lSzQ6WL-67" target="IJKqTvDwEQRu4lSzQ6WL-68">
          <mxGeometry width="50" height="50" relative="1" as="geometry">
            <mxPoint x="570" y="370" as="sourcePoint" />
            <mxPoint x="620" y="320" as="targetPoint" />
          </mxGeometry>
        </mxCell>
        <mxCell id="IJKqTvDwEQRu4lSzQ6WL-77" value="" style="endArrow=classic;html=1;rounded=0;" edge="1" parent="1" source="IJKqTvDwEQRu4lSzQ6WL-68" target="IJKqTvDwEQRu4lSzQ6WL-69">
          <mxGeometry width="50" height="50" relative="1" as="geometry">
            <mxPoint x="630" y="440" as="sourcePoint" />
            <mxPoint x="680" y="390" as="targetPoint" />
          </mxGeometry>
        </mxCell>
        <mxCell id="IJKqTvDwEQRu4lSzQ6WL-78" value="no" style="text;fontStyle=0;html=1;strokeColor=none;gradientColor=none;fillColor=none;strokeWidth=2;" vertex="1" parent="1">
          <mxGeometry x="369" y="357" width="40" height="26" as="geometry" />
        </mxCell>
        <mxCell id="IJKqTvDwEQRu4lSzQ6WL-79" value="yes" style="text;fontStyle=0;html=1;strokeColor=none;gradientColor=none;fillColor=none;strokeWidth=2;" vertex="1" parent="1">
          <mxGeometry x="589" y="469" width="40" height="26" as="geometry" />
        </mxCell>
        <mxCell id="IJKqTvDwEQRu4lSzQ6WL-81" value="no" style="text;fontStyle=0;html=1;strokeColor=none;gradientColor=none;fillColor=none;strokeWidth=2;" vertex="1" parent="1">
          <mxGeometry x="510" y="414" width="40" height="26" as="geometry" />
        </mxCell>
        <mxCell id="IJKqTvDwEQRu4lSzQ6WL-82" value="no" style="text;fontStyle=0;html=1;strokeColor=none;gradientColor=none;fillColor=none;strokeWidth=2;" vertex="1" parent="1">
          <mxGeometry x="589" y="273.5" width="40" height="26" as="geometry" />
        </mxCell>
        <mxCell id="IJKqTvDwEQRu4lSzQ6WL-83" value="" style="endArrow=classic;html=1;rounded=1;exitX=0.6;exitY=1.231;exitDx=0;exitDy=0;exitPerimeter=0;curved=0;" edge="1" parent="1" source="IJKqTvDwEQRu4lSzQ6WL-81">
          <mxGeometry width="50" height="50" relative="1" as="geometry">
            <mxPoint x="490" y="450" as="sourcePoint" />
            <mxPoint x="580" y="280" as="targetPoint" />
            <Array as="points">
              <mxPoint x="480" y="446" />
              <mxPoint x="480" y="280" />
            </Array>
          </mxGeometry>
        </mxCell>
        <mxCell id="IJKqTvDwEQRu4lSzQ6WL-84" value="no" style="text;fontStyle=0;html=1;strokeColor=none;gradientColor=none;fillColor=none;strokeWidth=2;" vertex="1" parent="1">
          <mxGeometry x="220" y="550" width="40" height="26" as="geometry" />
        </mxCell>
        <mxCell id="IJKqTvDwEQRu4lSzQ6WL-86" value="yes" style="text;fontStyle=0;html=1;strokeColor=none;gradientColor=none;fillColor=none;strokeWidth=2;" vertex="1" parent="1">
          <mxGeometry x="329" y="617" width="40" height="26" as="geometry" />
        </mxCell>
      </root>
    </mxGraphModel>
  </diagram>
</mxfile>
